<?xml version="1.0" encoding="utf-8"?>
<!-- Generator: Adobe Illustrator 21.0.0, SVG Export Plug-In . SVG Version: 6.00 Build 0)  -->
<svg version="1.1" id="Layer_1" xmlns="http://www.w3.org/2000/svg" xmlns:xlink="http://www.w3.org/1999/xlink" x="0px" y="0px"
	 viewBox="0 0 21.9 31.4" style="enable-background:new 0 0 21.9 31.4;" xml:space="preserve">
<g>
	<path d="M3.5,18c-1.3-0.2-2.2-0.8-2.7-1.6c-0.5-0.8-0.8-2.2-0.8-4c0-3.6,1.1-6.6,3.3-8.9S8.3,0,11.7,0c1.3,0,2.6,0.2,3.9,0.7
		s2.3,1.2,3.2,2c1,0.9,1.8,2,2.3,3c0.4,1.1,0.7,2.2,0.7,3.3c0,1.2-0.3,2.2-0.8,2.9c-0.5,0.7-1.4,1.1-2.5,1.4
		c0.2,0.5,0.4,0.9,0.5,1.3c0.1,0.3,0.2,0.6,0.2,0.8c0,0.6-0.3,1.3-1,2c-0.7,0.7-1.3,1-1.9,1c-0.3,0-0.5,0-0.8-0.1s-0.6-0.2-1-0.5
		c0.9,3,1.8,5.5,2.3,7.2c0.5,1.7,0.7,2.8,0.7,3.5c0,0.9-0.2,1.6-0.7,2.1c-0.4,0.5-1.1,0.8-1.9,0.8c-1.3,0-3-3-5.1-9.1
		c-0.4-1-0.6-1.8-0.8-2.4c-0.2,0.4-0.4,1.1-0.7,1.9c-2.1,6-3.9,9-5.3,9c-0.7,0-1.3-0.2-1.8-0.7c-0.4-0.5-0.7-1.2-0.7-2
		c0-0.6,0.2-1.8,0.7-3.5C1.8,22.9,2.5,20.7,3.5,18z M18.9,9.2c-0.2-0.2-0.5-0.6-0.8-1.1c-0.9-1.3-1.8-2-2.6-2
		c-0.3,0-0.5,0.1-0.7,0.3c-0.2,0.2-0.3,0.4-0.3,0.5c0,0.2,0.1,0.6,0.4,1.1s0.7,1.1,1.2,1.7c0.6,0.7,1.1,1.3,1.4,1.6
		c0.4,0.3,0.7,0.5,0.9,0.5c0.5,0,1-0.3,1.4-0.8s0.6-1.2,0.6-1.9c0-0.6-0.1-1.2-0.4-2c-0.3-0.7-0.7-1.5-1.3-2.2
		c-0.9-1-1.9-1.9-3.2-2.5s-2.6-0.9-4.2-0.9c-2.8,0-5.1,1-7,3.1s-2.8,4.7-2.8,7.9c0,1,0.1,1.7,0.2,2.3c0.1,0.6,0.4,1,0.7,1.2
		c0.6,0.5,1.7,0.9,3.4,1.3s3.5,0.6,5.3,0.6c0.5,0,0.9-0.1,1.1-0.3c0.2-0.2,0.3-0.5,0.3-0.9c0-1-0.5-1.7-1.6-2.1S8,13.9,5.6,13.9H4.7
		c-0.2,0-0.4-0.1-0.5-0.2C4.1,13.5,4,13.3,4,13c0.2-0.2,0.7-0.5,1.5-0.8c0.8-0.3,1.3-0.6,1.7-0.9C8.1,10.7,8.8,9.9,9.3,9
		c0.5-0.9,0.8-1.7,0.8-2.5c0-0.5-0.1-1-0.3-1.7S9.5,3.7,9.5,3.6V3.4V3.2c0.6,0,1.1,0.4,1.5,1.1s0.5,1.6,0.5,2.8v0.2
		c0.1-0.1,0.2-0.2,0.3-0.2S12,7,12.2,7c0.1,0,0.3,0,0.4,0c0.1,0,0.2,0.1,0.4,0.1c0-0.2-0.1-0.3-0.1-0.5s0-0.3,0-0.4
		c0-0.5,0.2-1,0.6-1.4c0.4-0.4,0.9-0.6,1.5-0.6c0.9,0,1.8,0.4,2.8,1.3c0.9,0.9,1.4,1.7,1.4,2.6c0,0.2,0,0.3-0.1,0.4
		C19.1,9,19,9.1,18.9,9.2z M12.4,8.7c-0.2,0-0.5,0.1-0.7,0.3c-0.2,0.2-0.3,0.5-0.3,0.7c0,0.3,0.2,0.9,0.6,1.9c0.4,1,0.9,2,1.5,2.9
		c0.4,0.7,0.9,1.3,1.3,1.6c0.4,0.4,0.8,0.5,1.2,0.5c0.3,0,0.6-0.2,1-0.6s0.5-0.7,0.5-1.1c0-0.3-0.2-0.9-0.5-1.6
		c-0.4-0.7-0.8-1.4-1.4-2.2c-0.6-0.8-1.2-1.5-1.8-2C13.2,8.9,12.8,8.7,12.4,8.7z M10.3,19.1l2.4,6.7c0.6,1.7,1,2.9,1.4,3.4
		c0.3,0.5,0.6,0.8,1,0.8c0.3,0,0.5-0.1,0.7-0.3c0.3-0.3,0.4-0.6,0.4-1c0-0.7-0.3-1.8-0.8-3.4s-1.3-3.8-2.3-6.4
		c-0.1,0.2-0.2,0.3-0.4,0.3c-0.2,0.1-0.4,0.1-0.6,0.1c-0.1,0-0.3,0-0.5,0C11.3,19.2,10.9,19.2,10.3,19.1z M7.9,12.6
		c0.6,0,1.2,0.1,1.8,0.2s1.1,0.2,1.6,0.4c-0.2-0.5-0.4-0.9-0.6-1.4c-0.2-0.5-0.3-0.9-0.4-1.4c-0.3,0.4-0.7,0.8-1.1,1.2
		C8.7,12,8.3,12.3,7.9,12.6z M5,18.4c-1,2.6-1.7,4.8-2.3,6.5c-0.5,1.7-0.8,2.7-0.8,3.1s0.1,0.7,0.3,1c0.2,0.2,0.4,0.3,0.7,0.3
		c0.4,0,0.8-0.3,1.2-1c0.4-0.7,0.9-1.7,1.4-3.2l2.2-6.2L5,18.4z"/>
</g>
</svg>
